<?xml version="1.0" encoding="utf-8"?>
<!-- Generator: Adobe Illustrator 21.1.0, SVG Export Plug-In . SVG Version: 6.00 Build 0)  -->
<svg version="1.1" id="OBJECTS" xmlns="http://www.w3.org/2000/svg" xmlns:xlink="http://www.w3.org/1999/xlink" x="0px" y="0px"
	 viewBox="0 0 732 262.5" style="enable-background:new 0 0 732 262.5;" xml:space="preserve">
<style type="text/css">
	.st0{fill:#FFFFFF;}
</style>
<g>
	<path class="st0" d="M429,86.8c8.9,2.5,12,9.3,16.6,16.4c0.2,0.4,0.8,0.1,0.7-0.3c-4.6-19.6-25.9-24.9-37.7-14.4
		c-0.3,0.2,0.1,0.7,0.4,0.5C414.8,85.1,422.5,85,429,86.8z"/>
	<path class="st0" d="M439.2,102.6c-4.7-4.6-10.2-4.3-12.8-1.6c-0.1,0.1,0,0.2,0.1,0.2c12-2.2,14.7,7.4,15.2,9.3
		c1.9,1,2.5-8.5-5.3-15.2c-4.3-3.6-10.2-5.2-15.5-2.3c-0.2,0.1-0.1,0.4,0.1,0.4C429.2,91.9,436,96.4,439.2,102.6z"/>
	<path class="st0" d="M510.7,145.6c-1.6,4.2-9,14.2-28,17.5c2.5,0.8,10.2,0.6,17.9-4.3C512.2,151.5,512.4,143.6,510.7,145.6z"/>
	<path class="st0" d="M506,144.9c0-0.4-0.6-0.7-0.7-0.3c-2.3,8.4-18.4,12.5-21.7,14.1C480,160.4,506.3,157.3,506,144.9z"/>
	<path class="st0" d="M484.4,154.5c4.8,0,13.8-4.4,15.3-8.8c0.2-0.4-1.2,0.4-1.4,0.8c-1,1.4-9.8,6.3-13.9,7.8
		C484.3,154.3,484.3,154.5,484.4,154.5z"/>
	<path class="st0" d="M470.4,152.5c-3.5,3-6.9,7.6-23.1,9.1c-8.2,0.7-16.3-1.3-24.4-1.8c-0.4,0-0.4,0.5-0.1,0.6
		c17.6,6,42.5,4.5,48.3-7.2C471.3,152.8,470.8,152.2,470.4,152.5z"/>
	<path class="st0" d="M467,150c0.7-0.6,1.1-2,0.3-1.6c-7.1,3.3-14.8,9.7-31.1,9.6C434,158.1,451,163.6,467,150z"/>
	<path class="st0" d="M457.5,144.5c0.1-0.3-0.3-0.7-0.6-0.5c-2.5,1.9-4.6,4-7.5,5.5c-3.4,1.8-7.1,2.5-10.7,3.9
		C435.5,154.7,454.1,154.2,457.5,144.5z"/>
	<path class="st0" d="M379,162.1c-6.4,1.6-8.8,4.4-21.2,3.6c-7.3-0.5-14.8-3-18.3-9.9c-1.2-2.4-1,9.3,15.7,12
		C375.9,171.2,381.9,161.4,379,162.1z"/>
	<path class="st0" d="M379.8,157.4c-7.8-1.1-14.1,6-28.9,0.3c-0.2-0.1-0.3,0.2-0.2,0.3c3.9,3.1,7.9,4.3,12.9,4.2
		C374.2,162,382.3,157.8,379.8,157.4z"/>
	<path class="st0" d="M369.9,156.4c7.6-0.9,8-4.2,6.9-4.2c-2.1,0-4.2,1.5-6.3,2c-3,0.7-6.8,0.8-9.8,0.1c-0.3-0.1-0.5,0.3-0.2,0.5
		C363.5,156.5,366.5,156.8,369.9,156.4z"/>
	<path class="st0" d="M265.1,151.8c-5.9,1.6-10.4,4.5-16.8,4.4c-6.7-0.1-15.8-5.4-15-13c0.1-0.6-0.9-0.7-1.1-0.1
		c-1.5,6.5,4.2,12.2,9.9,14.2c7.3,2.6,18.1,1.7,23.8-3.9C266.7,152.7,266,151.6,265.1,151.8z"/>
	<path class="st0" d="M250,153.5c10.9,1,14.9-4.8,12.9-4.7c-3.6,0.2-6.9,2-10.6,2.4c-4.8,0.5-9.5-0.9-13.3-3.9
		C238.1,146.6,240.6,152.7,250,153.5z"/>
	<path class="st0" d="M253.2,149.7c6.1,0.5,10.4-3.2,8.5-3.5c-3.8-0.6-5.7,3.1-15.6,0.6C245.2,146.6,247.8,149.3,253.2,149.7z"/>
	<path class="st0" d="M328,149.1c-7.1,3.8-11.6,16-27.7,12.9c-0.2,0-0.4,0.2-0.2,0.4c4.8,3.3,10.8,1.7,15.6-0.8
		C327.4,155.8,330.8,147.6,328,149.1z"/>
	<path class="st0" d="M303.8,156.9c7.1-0.6,13.8-2.1,18-8.4c0.7-1-0.9-2.2-1.7-1.3c-4.5,5.3-9.8,7.3-16.4,9
		C303.3,156.2,303.4,156.9,303.8,156.9z"/>
	<path class="st0" d="M303.7,152.1c4.3,0.6,9.7-0.9,10.4-3.3c0.1-0.4-0.2-0.7-0.5-0.7c-1.3-0.1-2.5,1-3.6,1.5
		c-1.8,0.9-4.1,1.7-6.1,1.8C303.5,151.5,303.4,152,303.7,152.1z"/>
	<path class="st0" d="M501.3,127.7c-1.2-6.2-7.2-15.9-18.9-18.2c0.6-7.3-2.6-14.8-4-17.9c-4.7-9.9-17.3-20.5-34.1-21
		C444,54,426,29.4,395.7,29.4c-9.9,0-28.2,3-40.6,22.8c-3.3-0.8-6.7-1.2-10-1.2c-24.6,0-43.6,21.5-48.3,37.4
		c-19.9-4.5-47.1,15.7-45.8,35.1c-7.7,0.1-16,4.1-20.5,7.8c-7.7,6.4-9.6,17.7-4.2,25.1c7.8,10.7,31.4,15.4,46.3,5
		c3.7,6.3,15.3,11,19.2,11.8c11.3,2.3,30.4,0.2,38.6-8.9c5.6,15.8,32.3,17.4,45.5,14.4c10.6-2.4,17.9-9.7,28.5-9.7
		c11.7,0,16.3,5.4,38.1,5.4c8.7,0,16.7-1,22.1-2.7c11.2,3.7,24.9,1,36.2-2.7c8.1-2.7,18.5-7.8,22.2-17.4
		C527.9,138.5,519.3,125.8,501.3,127.7z M517.3,152.5c-4.2,7.2-13.5,10.6-21,12.9c-9.1,2.8-18.1,3.7-27.4,2.5
		c0.8-0.4,1.6-0.8,2.4-1.3c0.7-0.4,0.2-1.5-0.6-1.3c-42,11.1-50.9-2.3-68.9-1.1c-14.2,1-22.1,14-47.3,10.3
		c-9.9-1.5-20.9-6.1-22.2-17.2c0.3-1.4-1-1.7-1.5-0.9c-7.7,11.1-21.4,13.5-34.1,12.7c-11.6-0.7-21.2-7.7-21.1-12.6
		c0.8-0.9,1.5-1.8,2.2-2.7c0.6-0.8-0.7-1.7-1.3-1c-17,15.1-36.1,10.5-44.6,3c-6.8-6-4.1-15.5,1.9-21c3.4-3.2,8-4.7,12.5-5.7
		c4.3-1,8.6-0.2,12.9-1c0.3-0.1,0.3-0.5,0.1-0.6c-1.3-0.8-2.8-1.3-4.4-1.6c0.2-5.1,1.5-9.5,3.7-13.6c-0.1,6.4,6,19.2,23.7,20.1
		c0.4,0,0.5-0.6,0.1-0.7c-11.4-2.8-22.6-10.4-20.9-23.4c0-0.1,0-0.2,0-0.4c1.5-1.9,3.2-3.7,5.1-5.4c-2.7,10.9,5.5,25.2,17.4,25.5
		c0.5,0,0.6-0.8,0.1-0.9c-11.4-1.9-21.5-20.1-11.5-28.8c0.1-0.1,0.1-0.2,0.1-0.3c0.9-0.5,1.9-1,2.8-1.5c-4.3,7,0.9,18,5.1,24.7
		c0.2,0.4,0.8,0,0.6-0.3c-8.8-16.6-4.7-21.6,1.2-27c5.2-1.5,10.7-1.7,15.6-0.2c-0.7,5.1,0,10.2,2.7,15.1c0.1,0.2,0.3,0,0.2-0.1
		c-6.9-18.1,11.1-41.7,29.3-50.2c7.9-3.7,16.5-3.4,24.9-1.6c-0.1,0.1-0.1,0.2-0.2,0.4c-9.1-2.5-20.5,3.6-27.5,8.8
		c-7.9,5.8-13.6,13.8-14.6,23.7c0,0.4,0.6,0.5,0.7,0.1c4.6-20.2,28.7-32.7,40.3-30.2c-0.1,0.3-0.3,0.6-0.4,0.9
		c-9.2-0.6-28.5,12-28.5,26.6c0,0.4,0.6,0.4,0.6,0.1c2.7-13.1,14.6-21.3,27-24.1c-0.2,0.7-0.4,1.5-0.5,2.2
		c-5.4,0.2-17.3,9.8-14.8,19.5c0.1,0.2,0.4,0.2,0.4,0c1-4.4,2.5-8.3,5.6-11.6c3.4-3.7,7.5-4.9,8.5-5.3c-0.1,1-0.1,1.9-0.1,2.9
		c0,0.5,0.7,0.6,0.9,0.1c3.5-9.8,7.1-18.2,14.7-25.6c14.2-14,40.1-15.3,57.9-1.2c8.1,6.4,15.8,18.1,15.1,28.7c-0.1,0-0.3,0-0.4,0.1
		c-1.7-14.1-24.9-36.3-45.2-30.3c-0.1,0-0.1,0.2,0,0.2c9.4,0.4,17.3,2,25.2,7.4c7.8,5.3,14.4,14,17.1,23.1c-1.3,0.2-2.5,0.5-3.7,0.9
		c-0.6-10.2-17.2-24-31.5-21.8c-0.1,0-0.1,0.2,0,0.2c9.6,1.2,18.3,5.6,24.8,13.2c2.4,2.9,3.2,5.9,4.2,9.2c-0.7,0.3-1.4,0.6-2.1,0.9
		c-0.1,0-0.2,0-0.3,0c-2.8-8.2-11.1-16.9-20.5-14.5c-0.1,0-0.1,0.2,0,0.2c8.6,1.5,14,6.4,17.4,14c-10.2-0.9-21.3,2.3-26.2,11.9
		c-0.3,0.5,0.4,0.9,0.7,0.4c7.8-11.7,25.8-9.5,27.7-9.3c16,1.5,19,11,22,15c0.3,0.4,0.9-0.1,0.9-0.5c-0.1-4.8-6.6-13.2-17.5-16.2
		c21.1-5.4,39.6,5.8,43.9,24.6c0.7,3.2,0.6,6.5,1.2,9.7c-6.5-0.2-13.5,1.8-18.9,4.7c-0.3,0.1-0.1,0.5,0.2,0.5
		c10.1-2.3,28-6.8,35.1,7.3c-4-3.3-10.3-5.2-14-5.7c-16.9-2.2-26.3,12.3-23.7,9.9c5.4-5.1,12.7-7.4,20-7.5c8.6-0.2,14.8,4,19.6,10.5
		c-0.6,0.2-1.2,0.4-1.8,0.6c-13.4-14.3-33.9-1.1-30.3-2.1c17.6-4.4,19.8-2.6,27.8,3.3c-0.2,0.1-1,0.7-1.2,0.9
		c-4.1-2.8-11.6-2.5-14,0c3.7-1.1,10.2-1.1,12.5,1.5c-1.2,1.5-2.8,2.2,0.4,1.3c3.9-1.1,10.2-5.1,20.4-3.2
		C519.4,134.8,521.9,144.7,517.3,152.5z"/>
</g>
<g>
	<path class="st0" d="M271.5,142.3c2,0.3,4-0.1,5.9-0.7c1.6-0.5,3.9-1.1,4.9-2.5c0.2-0.3-0.1-0.6-0.4-0.7c-1.7-0.1-3.4,1.1-5,1.7
		c-1.8,0.7-3.7,1.2-5.6,1.5C271,141.7,271.2,142.2,271.5,142.3z"/>
	<path class="st0" d="M274.6,143.8c-0.3,0-0.2,0.4,0,0.5c3.4,0.8,9.7-1.4,11.2-3.5c0.1-0.2,0-0.4-0.2-0.4c-1.8,0.2-3.4,1.3-5,2
		C278.6,143.2,276.6,143.4,274.6,143.8z"/>
	<path class="st0" d="M279.6,146c-0.3,0.1-0.1,0.5,0.2,0.5c1.7-0.3,3.2-0.8,4.7-1.6c3.5-1.7,3.5-3,2.9-2.9c-1.2,0.2-2.3,1.4-3.4,2
		C282.5,144.8,281,145.3,279.6,146z"/>
	<path class="st0" d="M263,127.2c2.6-0.6,7.9-0.6,8.8-3.1c0.1-0.2-0.1-0.3-0.3-0.3c-1.3,0.5-0.7,0.9-4.1,1.8c-1.5,0.4-3,0.7-4.5,1.3
		C262.8,127,262.8,127.3,263,127.2z"/>
	<path class="st0" d="M267.9,128.2c2.3-0.3,5.8-0.8,6.3-2.4c0-0.1-0.1-0.2-0.2-0.2c-1-0.1-2.2,0.7-3.1,1
		C268.8,127.4,267.2,128.3,267.9,128.2z"/>
	<path class="st0" d="M284.6,200.9c-1.2,2.1-2.7,4.1-4.6,5.5c-1.4,1-3.7,0.9-4.7,2.5c-0.6,1,2.3,0.7,5.8-2.1c2-1.5,2.9-3.6,3.7-5.9
		C284.9,200.9,284.7,200.8,284.6,200.9z"/>
	<path class="st0" d="M165.1,186.8c-0.6,0.5-1.3,1-1.9,1.4c-0.5,0.3-0.9,0.5-1.3,1c-0.1,0.2,0,0.5,0.3,0.5c1.2-0.1,2.4-1.3,3.3-2
		c1.1-0.9,2-1.8,2.5-3.2C168.3,183.8,166.1,186,165.1,186.8z"/>
	<path class="st0" d="M110.8,183.3c-1.6,1-3.2,1.9-4.9,2.8c-1.6,0.8-3.9,0.8-5.2,2c-0.2,0.1-0.1,0.5,0.1,0.6
		c1.6,0.7,3.3-0.3,4.7-0.9c2.2-1,3.9-2.4,5.6-4C111.3,183.5,111.1,183.1,110.8,183.3z"/>
	<path class="st0" d="M142.1,127.1c-2.4,0-6.1-0.1-7.9,1.7c-0.2,0.2,0,0.6,0.2,0.6c2.5,0.3,5.2-0.8,7.7-0.9c2.9-0.1,5.8,0.4,8.7,0.4
		c0.2,0,0.3-0.3,0.1-0.4C148.1,127.3,145,127.2,142.1,127.1z"/>
	<path class="st0" d="M143.5,131.8c-3.3-0.9-6.8-0.9-10.2-0.6c-1.9,0.2-6.6,0.4-7.1,2.8c-0.2,1.1,2.5-0.5,3.5-0.9
		c3.4-1.1,10-0.9,13.7-1C143.7,132.2,143.7,131.9,143.5,131.8z"/>
	<path class="st0" d="M135.3,135.7c-3.6-1.3-9.9-0.7-12.5,2.5c-0.2,0.3,0,0.7,0.3,0.6c3.1-0.7,5.4-3,12.1-2.8
		C135.5,136.1,135.5,135.7,135.3,135.7z"/>
	<path class="st0" d="M388.7,192.5c-4.3-4.2-10.5-4.6-16.3-3.1c-2.7-6.9-10.9-12-17.8-9.1c-4-8.1-22.7-18.6-32.5-11.2
		c-2.3-3.1-6.5-6.1-11.4-7.2c-1.6-4.8-6.7-7.6-11.8-8.6c1.3-8.1-4.6-18.4-15.9-22.2c0.2-9.3-11.8-18.5-22.8-14.6
		c-5.6-12.4-24-17.3-31.7-12.3c-6.1-11.3-22.6-22.1-43.1-15.8c-16.1,5-28.1,20.7-28.8,32.1c-13.2-4.4-36.3,3.4-43.3,18.1
		c-5.6-1.9-17.1,2.5-18.9,12.7c-15.7-3.2-34.4,5.7-40.5,16.6c-6.5-2.4-19.4,0.9-25.4,9.6c-6,8.7,4.1,21.6,21.2,15.6
		c6.8-2.4,12.9-7.3,19.3-7.3c10.2,0,18.8,12,35.3,8.9c7.4-1.4,14.6-4.5,21.4-7.8c6.7,13.9,34.3,14.7,47,6.4c5.1,4,14,6.6,20.1,6.7
		c-3.4,16,21.5,19.6,41,10.4c8,6.3,24.4,5.7,33,0.9c2.8,9.4,17.2,9.6,27.2,4c2.8,1.8,6.5,2,9.8,1.8c0.7,0.1,9.1-0.7,14.5-5.8
		c6.5,6.6,23.5,5.4,31.6,0.1c5,4.4,13.3,4,19.8,3.7C399.4,213.9,396.5,200.1,388.7,192.5z M389.8,203.9c-0.6,3.2-5.8,5.1-8.9,5.9
		c1.6-1.5,3-2.6,4.5-5.6c0.1-0.2-0.2-0.4-0.3-0.2c-2.7,3.7-6.3,5.3-7.3,6.4c-1.4,0.2-2.9,0.4-4.3,0.5c0.5-0.3,0.9-0.7,1.3-0.9
		c3.6-2.4,4.5-5.2,3.8-4.5c-1.5,1.4-3,2.7-4.8,3.7c-1.1,0.6-2.6,1.1-3.6,2c-1.4,0-2.7,0.1-4.1,0.1c5.7-3.3,9.6-10.9,8.3-9.4
		c-3.4,3.9-7.1,7.3-11.9,9.2c-0.9-0.1-1.7-0.2-2.5-0.3c3.5-1.7,6.2-5.4,8-8.5c0.2-0.3-0.2-0.5-0.4-0.2c-4,5.3-8.6,7.4-10.1,8.2
		c-0.4-0.1-0.8-0.2-1.3-0.4c2.2-1.4,3.8-3.6,5.1-5.8c0.1-0.2-0.2-0.4-0.3-0.3c-1.9,2.2-3.8,4-6.3,5.4c-1-0.4-2-1-2.9-1.6
		c1-1.2,1.7-2.5,2-4.2c0.1-0.4-0.4-0.6-0.6-0.3c-0.9,1.4-1.9,2.6-3.1,3.6c-0.1,0-0.2,0.1-0.3,0.2c-2.2,1.7-4.9,2.8-7.7,3.5
		c1.9-2.3,2.5-2.9,4.8-6.7c0.1-0.2-0.2-0.4-0.3-0.3c-5.2,5.7-5,5.6-7.2,7.5c-1.4,0.2-2.3,0.3-3,0.4c7.8-6.9,6.4-10.6,6.1-9.9
		c-1.8,4.2-4.6,7.5-8.3,10c-1.8,0.1-3.6,0-5.3-0.3c4-2.4,5.5-5.1,7.1-7.9c0.1-0.2-0.1-0.3-0.2-0.1c-4.3,5.6-8.6,7.2-9.3,7.5
		c-0.9-0.2-1.7-0.5-2.5-0.9c3.8-2.4,4.7-6,4.2-5.3c-1.5,2-3.6,3.2-5.6,4.5c-0.4-0.3-2.2-2.2-2.6-2.4c0.4-0.8,0.8-1.6,1-2.5
		c0.1-0.5-0.6-0.8-0.8-0.3c-2.5,4-6.2,6.9-10.5,8.3c1.9-2.1,3.4-4,5.5-8.1c0.1-0.2-0.2-0.5-0.4-0.3c-2.9,3.2-5,6.7-8.5,9.2
		c-1.3,0.2-2.6,0.2-3.8,0.2c4-2.8,4.8-7.2,4.2-6.1c-1.6,2.5-3.5,4.5-6.1,5.9c-1.4-0.2-2.8-0.6-4.1-1.1c3.8-3.1,4.3-6.9,3.8-6.2
		c-1.1,1.9-3.2,3.8-5.8,5.3c-0.3,0-0.6,0.1-0.7,0.4c-1.6,0.9-3.4,1.7-5.2,2.3c3.1-3.1,4.2-6.4,6-9.9c0.1-0.1-0.1-0.2-0.2-0.1
		c-3.1,3.6-4.3,7.2-7.7,9.6c-1,0.7-2.3,0.9-3.2,1.7c-1.9,0.3-3.8,0.3-5.4,0c8.7-3.8,11.6-13.8,10.4-11.8
		c-5.2,8.8-12.2,10.2-13.3,10.9c-2.7-1.3-4.3-3.9-4-8.3c0.5-0.6,0.9-1.3,1.2-2.1c0.1-0.2-0.1-0.3-0.3-0.2c-1.1,0.8-2.2,1.6-3.4,2.3
		c1.4-1.9,2.5-4,3.3-6.4c0.1-0.2-0.2-0.2-0.3-0.1c-4.3,5.9-4.9,8.9-13.7,10.8c2.1-1.8,3.5-2.8,5.8-7.3c0.1-0.1-0.1-0.3-0.2-0.1
		c-3.3,4.9-9,7.4-10,8.1c-1.3,0.1-2.7,0.1-4,0c8.3-4.9,9.4-12.2,8.3-10.7c-6.1,9.1-8.3,7.9-12.1,10.2c-0.7-0.1-1.5-0.3-2.2-0.5
		c4.2-2,6.9-5.2,8.5-9.4c0.1-0.2-0.2-0.3-0.3-0.1c-4.8,7.5-7.6,7-10.9,8.6c-1.4-0.6-2.8-1.2-4.2-2c0.2-0.6-0.4-1.2-1.1-1.1
		c-0.2,0-0.4,0.1-0.6,0.1c-0.3-0.1-0.5,0-0.7,0.2c-0.6,0.1-1.2,0.3-1.7,0.4c1.5-1.2,2.7-2.7,3.7-4.4c0.1-0.2-0.2-0.4-0.3-0.2
		c-3,3.1-6.4,6-14.9,8.3c2.4-1.4,4.4-3.4,6.1-5.6c0.1-0.2-0.1-0.4-0.3-0.3c-2.7,1.7-5.3,3.6-8.1,5.1c-1.8,0.9-4,1.3-6,1.9
		c-2.2,0-4.4-0.2-6.5-0.7c14.9-1.5,16.8-11.3,15.9-10.1c-7.2,8.5-16.9,7.5-20.6,8.5c-0.9-0.5-1.6-1.1-2.2-1.8
		c7,0.3,13.1-2.9,18.1-7.9c0.2-0.2,0-0.5-0.2-0.4c-4.1,1.7-6.6,7.1-19,6.5c-1.9-4.6,1.7-9.2,5.4-12.5c2.3-2,4.4-2.1,7.3-2.1
		c1.1,0-0.5-2.2-3.2-2c3-10.2,13-15,20.7-13.2c3.8,0.9,6.4,4.3,8.8,7.2c0.6,0.7,1.6,0.2,1.8-0.5c2.5-2.9,4.9-4.3,9-4.8
		c6.9-0.8,8.6,2.3,11.3,4.8c-0.5,1.3-0.9,2.6-1,4.1c0,0.4,0.5,0.4,0.6,0.1c0.5-1.3,1.1-2.5,1.8-3.6c0.2-0.1,0.4-0.3,0.4-0.6
		c5.5-7.7,16.8-11,24.8-4.5c0,0.1,0,0.3,0,0.4c0,0.4,0.5,0.4,0.6,0.1c0-0.1,0.1-0.2,0.1-0.3c0.6-0.1,1.1-0.8,0.6-1.4
		c3.8-8.1,16.2-11.9,25.3-9.2c4.1,1.2,6.2,4.5,8.6,7.7c-0.2,0.5,0.3,1.1,0.7,0.9c0.4,0.2,1-0.1,1-0.6c0-0.1,0-0.2,0-0.3
		c4.5-4.6,9.9-4.3,15.8-2c6,2.3,11.1,6.6,14.2,12.2c0.3,0.6,1.3,0.4,1.4-0.3c6.8-2,14,1,15.5,8.4c-2.5,1-4.8,2.4-6.6,3.8
		c-0.3,0.2-0.1,0.8,0.3,0.7c7.3-2.2,16-7.5,23.1-1.6C388,197.3,390.4,200.9,389.8,203.9z M200.5,188.3c-2.3,4.1-7,6.2-7.6,6.9
		c-1.2-0.1-2.5-0.2-3.7-0.4c9.2-5.5,9.2-11.5,8.7-10.4c-2.3,4.9-6.9,7.7-11.6,9.9c-0.8-0.1-1.6-0.3-2.4-0.5
		c6.8-3.6,10.3-12.7,9.3-11.5c-6.6,8.7-8.1,8.8-11.9,10.8c-1.1-0.3-2.2-0.7-3.2-1.2c4.9-2.6,6-6.8,5.3-6c-2.1,2.5-4.5,4-7.1,5.1
		c-0.7-0.4-1.5-0.8-2.4-1.6c0-0.4-0.3-0.9-0.8-1c-0.6-1-0.8-2.1-1-3.6c0-0.1-0.2-0.2-0.3-0.1c-1.1,1.4-1,2.8-0.3,4.1
		c-6.2,2.9-11,5-18.6,5.3c3.6-1.8,6.7-5.2,8.7-8.1c0.2-0.2-0.2-0.5-0.4-0.3c-7,6.7-9.4,6.7-14.7,8.2c-2.2-0.2-3.5-0.5-4.7-0.8
		c12.1-3.1,14.5-11.8,13.8-11c-4.5,4.9-10.4,9.4-17.3,9.9c-1.5-0.6-3-1.4-4.3-2.3c7.7,0.1,17.7-7.9,15.8-7
		c-10.5,5.3-15,4.6-18.3,4.9c-0.6-0.6-1.2-1.3-1.7-2c14.7-0.5,18.4-10,16.9-8.3c-4.5,4.9-11.5,5.9-17.8,6.5c-1.4-3-0.3-4.7,2.4-6.7
		c0.4-0.2,0.1-0.7-0.3-0.7c-3.1,0.5-4.6,2.7-4.6,5.4c-7.3,2.9-22.1,12.1-36,7.4c5.5-0.6,11.4-4.8,14-8.9c0.2-0.2-0.2-0.4-0.4-0.3
		c-9.7,7.9-10.8,6-17.3,7.7c-1-0.4-1.9-0.9-2.8-1.3c4.2-0.3,12.4-3.2,15.6-9.5c0-0.1,0-0.1-0.1-0.1c-9.8,8.4-12.6,6.4-19,7.9
		c-1-0.4-2-0.8-3-1.2c4-0.9,8-3.9,10.8-6c0.3-0.2-0.1-0.6-0.3-0.4c-2.7,1.2-5.4,2.6-8.2,3.7c-2.6,1-5.2,0.8-7.9,1.2
		c-3.4-0.6-7-0.4-10.9,1c-8.3,3.2-21.6,13.4-29.1,3.1c-4-5.4,3.7-10.7,7.9-12.8c4.3-2.2,10.1-3.8,14.6-1.6c-0.3,1-0.6,2.1-0.6,3.3
		c-0.1,0.8,1,0.8,1.2,0.2c2.7-6.5,6.3-13.3,19.7-18.1c6.1-2.2,13-3,19.7-1.5c3,0.7,5.5,2.4,8.3,3.4c0.7,0.3,1.3-0.8,0.7-1.3
		c-1.4-1.4-3.1-2.4-5-3.2c-1.1-3.8,0.4-6.5,3.5-9.3c1.7-1.6,3.9-2.5,6.1-3c2.1-0.4,3.9,0.4,5.8,1c-0.4,1.7-0.5,3.4-0.4,5.2
		c0.1,0.8,1.2,0.8,1.2,0c1.8-20.3,29.9-30.2,44.7-22.3c0.1,0,0.2,0.1,0.3,0.1c0.2,0.4,0.3,0.7,0.5,1.1c0.2,0.4,0.8,0.1,0.7-0.3
		c-0.1-0.4-0.2-0.9-0.3-1.3c0.1-0.3,0.1-0.7-0.2-0.9c-2.5-18.1,25.8-44.6,52.1-30.7c-2.5,1.4-2.4,2.1-8.7,4.4
		c-4.6,1.7-9.8,2.6-14.7,1.9c-0.1,0-0.1,0.1,0,0.1c7.8,2.9,19,0.2,25.2-5.4c1.7,1,3.2,2.1,4.6,3.4c-4.6,4.9-11.1,7.1-17.7,8
		c-0.1,0-0.1,0.1,0,0.2c6.4,1.3,14.8-1.7,19-6.9c1.3,1.3,2.4,2.7,3.4,4.3c-2.4,1.7-3.2,3.2-9.6,5.7c-4,1.5-8.3,2-12.5,2.7
		c-0.1,0-0.1,0.3,0,0.3c7.4,1.3,19.3-2.4,23-7.1c0.6,1.2,1.2,2.4,1.7,3.7c-7.7,6-10.8,4.5-17.1,7.3c-0.3,0.1-0.1,0.5,0.2,0.5
		c5.7-1,13.2-1.5,17.5-5.8c0.2,0.7,0.4,1.3,0.6,2c0.3,1.2,1.9,0.6,1.8-0.5c-0.2-1.2-0.4-2.4-0.8-3.5c0.1-0.1,0.1-0.2,0.1-0.3
		c4-5.6,14.7-2.6,20.6,1.1c-4.5,2.7-6.5,5.6-15.3,7.2c-0.2,0-0.2,0.4,0,0.5c5.8,1,12.9-2.3,16.9-6.6c1.4,1,2.7,2.2,3.8,3.5
		c-2.8,2.1-5.3,4.4-8.6,5.9c-4.4,2.1-9.4,3.1-14.2,3.3c-0.2,0-0.2,0.3,0,0.3c7.8,0.6,18.8-1.3,23.9-8.1c1,1.5,1.6,3.3,1.7,4.3
		c-7.5,4.7-15.2,8.9-24.4,8.8c-0.3,0-0.4,0.4-0.1,0.5c8.4,1.5,17.7-1.6,24.5-6.8c-0.1,4.7,2.6,1.7,2.1-1.8c0.1-0.1,0.1-0.3,0.1-0.4
		c7.3-2.8,14.2-0.5,17.9,5.3c1.3,2,1.3,4.1,1.8,6.3c-7-1.4-15.1,0.6-18.1,7.7c-0.2,0.4,0.3,0.9,0.7,0.5c8.5-10.6,22.3-7.8,29.8,1.1
		c3.5,4.1,3.4,8.5,2.9,13.4c-4,0.1-8,1.2-11.2,3.3c-0.3,0.2-0.1,0.8,0.3,0.6c5.5-2.2,13.1-3.3,18.5-0.7c-2.1,0.5-4.1,1.3-6.3,1.7
		c-2.5,0.4-5,0.5-7.5,1.1c-2.1,0.5,9.2,2.2,15.4-1.8c1.1,0.7,1.8,1.7,2.4,2.7c-7.1,1.7-14.2,3.7-21.5,2.9c-0.2,0-0.2,0.2,0,0.3
		c3.3,0.9,6.7,1,10.1,0.8c-1.6,0.7-3.2,1.6-4.6,2.7c-1.2-0.2-2.6,0.1-3.8,0.1c-4.2,0.1-7.3-0.4-6.5,0c1.9,0.9,4.4,1.6,8.4,1.6
		c-1.2,1.3-2.1,2.9-2.6,4.7c-6.9-6.2-20.8-4.6-26.2,5c-3.5-4-7.5-5.8-13.1-4.8c-2.4,0.4-7.6,1.9-8.8,4.8
		c-11.8-16.2-32.7-2.4-32.2,8.7c-3,1-6.4,4-8.2,6.7c-0.6,0-1.3,0-1.9-0.1c3-2.3,4.5-4.6,5.5-7C200.9,188.2,200.6,188.1,200.5,188.3z
		 M307,163.6C307,163.6,307,163.6,307,163.6C307,163.6,306.9,163.6,307,163.6C306.9,163.6,307,163.6,307,163.6z"/>
</g>
<g>
	<path class="st0" d="M532.7,189.4c-1.6-0.4-4.8,1.5-5.8,3.1c-0.2,0.2,0.2,0.5,0.4,0.4c0.9-0.5,1.7-1.1,2.6-1.6
		c0.9-0.5,2.1-0.7,2.9-1.3C533,189.8,533,189.4,532.7,189.4z"/>
	<path class="st0" d="M535.9,191c-0.9-0.2-3.5,0.6-4.4,0.9c-0.5,0.2-0.3,0.8,0.2,0.7c2.4-0.4,3.7-0.6,4.3-1
		C536.2,191.4,536.2,191,535.9,191z"/>
	<path class="st0" d="M536.4,192.4c-0.2,0.1-0.2,0.5,0.1,0.5c1.2-0.1,2.5-0.3,3.6-0.7C540.7,191.9,539.6,191,536.4,192.4z"/>
	<path class="st0" d="M538.8,195.2c-0.3,0.3,0.1,0.7,0.4,0.5c0.6-0.3,1.2-0.6,1.8-0.8c0.7-0.2,1.5-0.2,2.1-0.6
		C543.8,194,542.1,192.6,538.8,195.2z"/>
	<path class="st0" d="M547,195.8c0.7-0.5-0.7-1.6-4.2,0.3c-0.5,0.3-0.1,0.9,0.4,0.7c0.7-0.3,1.4-0.5,2.1-0.7
		C545.8,196,546.5,196.1,547,195.8z"/>
	<path class="st0" d="M545.4,198c-0.5,0.2-0.3,1.1,0.2,0.9c0.5-0.2,1-0.3,1.5-0.4c0.6-0.1,1.3-0.1,1.8-0.4c0.2-0.1,0.2-0.4,0-0.5
		C548,196.9,546.3,197.6,545.4,198z"/>
	<path class="st0" d="M570.9,199.5c-0.3,0.1-0.1,0.5,0.2,0.4c1.9-0.4,4.1-0.5,5.9-1.3C577.7,198.3,575.9,197.3,570.9,199.5z"/>
	<path class="st0" d="M575.1,201.1c-0.3,0.2,0,0.7,0.3,0.5c0.6-0.3,1.2-0.5,1.9-0.6c0.6-0.1,1.4,0,2-0.3c0.2-0.1,0.2-0.4,0-0.5
		C578.4,199.6,576,200.4,575.1,201.1z"/>
	<path class="st0" d="M579.9,202.4c-0.3,0.3,0.1,0.7,0.4,0.4c0.9-0.7,2.2-0.1,3.2-0.6C584.6,201.6,581.2,201,579.9,202.4z"/>
	<path class="st0" d="M585.5,203.4c-0.4-0.4-1-0.3-2.8-0.2c-0.5,0-0.5,0.8,0,0.8c1.8,0.1,2.4,0.2,2.8-0.2
		C585.6,203.7,585.6,203.5,585.5,203.4z"/>
	<path class="st0" d="M585.7,205.2c-0.4,0.2-0.1,0.8,0.3,0.7c0.6-0.1,1.1-0.3,1.7-0.4c0.6-0.1,1.2,0,1.6-0.4
		c0.2-0.2,0.1-0.4-0.1-0.5C588.5,204,586.6,204.8,585.7,205.2z"/>
	<path class="st0" d="M590.1,207.1c0.6,0,1.6,0.1,2.1-0.5c0.1-0.1,0-0.3-0.1-0.3c-0.3,0-0.6,0.1-0.9,0.2c-0.3,0.1-0.7,0.1-1,0.1
		C589.7,206.5,589.7,207.1,590.1,207.1z"/>
	<path class="st0" d="M595.2,208c0.3-0.3,0.7-0.2,1.1-0.4c0.6-0.2-0.7-0.8-1.5,0C594.5,207.8,594.9,208.2,595.2,208z"/>
	<path class="st0" d="M490.3,210.1c-0.8-0.2-1.6,0.1-2.4,0.3c-1.3,0.3-2.8,0.5-4.1,0.4c-0.2,0-0.2,0.3,0,0.3
		C489,212.4,491.4,210.3,490.3,210.1z"/>
	<path class="st0" d="M491.8,212c-0.8,0-1.6,0.4-2.4,0.6c-1,0.3-2.1,0.3-3.1,0.3c-0.4,0-0.4,0.5-0.1,0.7
		C490.6,214.9,493.1,212,491.8,212z"/>
	<path class="st0" d="M494.3,214.8c0.2-0.1,0.2-0.4,0-0.5c-1.2-0.6-3,0.3-4.1,0.6c-0.4,0.1-0.2,0.7,0.2,0.6c0.8-0.1,1.5-0.3,2.3-0.4
		C493.2,215.1,493.8,215.1,494.3,214.8z"/>
	<path class="st0" d="M494,216.6c1-0.3,1.7-0.4,2-0.9c0.1-0.2,0-0.4-0.2-0.4c-0.6-0.2-1.4,0.2-3.1,0.8c-0.5,0.2-0.3,1,0.2,0.8
		c1.3,0.6,3.5,1.2,5.1,0.7c-0.3,0.2-0.6,0.4-0.8,0.5c-0.4,0.3-0.1,0.9,0.4,0.7c4.1-1.7,4-2.6,3.4-2.6c-0.7,0-1.3,0.4-2.1,0.9
		c0.1-0.1,0.3-0.3,0.4-0.4c0.1-0.2,0-0.4-0.2-0.4C497.4,216.4,496.6,217.6,494,216.6z"/>
	<path class="st0" d="M435.4,225.5c-1.8-0.3-3.4,0.6-7.5-0.5c-0.3-0.1-0.4,0.3-0.2,0.4C433.8,228.7,436.8,225.7,435.4,225.5z"/>
	<path class="st0" d="M437.6,224c-1.2-0.4-2.3,0-4.5-1c-0.3-0.1-0.6,0.3-0.3,0.5C436.7,225.5,438.5,224.3,437.6,224z"/>
	<path class="st0" d="M442.1,221.1c-1.5,0.1-2.9,0.8-4.4,0.2c-0.3-0.1-0.6,0.4-0.2,0.6C440.3,223.4,443.3,221,442.1,221.1z"/>
	<path class="st0" d="M444.8,219.4c-1.1-0.5-2.2,0-5.3-0.4c-0.4,0-0.5,0.6-0.1,0.7c1.2,0.3,4.3,0.9,5.5,0.3
		C445.1,219.9,445.1,219.5,444.8,219.4z"/>
	<path class="st0" d="M446.4,216.9c-0.6-0.1-1.2,0-1.7,0c-0.8,0.1-1.6,0-2.4-0.1c-0.5-0.1-0.7,0.6-0.2,0.8
		C446.1,218.6,447.1,217.1,446.4,216.9z"/>
	<path class="st0" d="M450.2,215.2c-0.6-0.2-1.3,0-1.9,0.1c-0.7,0.1-1.4,0.2-2.1,0.2c-0.5,0-0.5,0.7,0,0.7c1.2,0.1,3.1,0.5,4.1-0.4
		C450.6,215.6,450.5,215.3,450.2,215.2z"/>
	<path class="st0" d="M383.7,225c-1.2-0.5-2.4-0.8-3.5-1.4c-1.2-0.6-2.2-1.4-3.4-2c-0.2-0.1-0.5,0.1-0.3,0.3
		C381,227.7,385,225.6,383.7,225z"/>
	<path class="st0" d="M385.2,223.2c-1-0.3-1.9-0.7-2.9-1.1c-0.2-0.1-0.5,0.3-0.3,0.4c4.2,3.3,6.4,2.1,5.5,1.5
		C386.9,223.5,386,223.5,385.2,223.2z"/>
	<path class="st0" d="M389.4,222.8c-0.8-0.2-1.6-0.6-2.4-1c-0.3-0.2-0.6,0.2-0.4,0.5c3,3.1,5.9,1.8,4.9,1.1
		C390.9,222.9,390.1,223,389.4,222.8z"/>
	<path class="st0" d="M395.7,221.8c-0.6-0.4-1.6-0.3-2.3-0.4c-0.9-0.2-1.8-0.5-2.5-1.1c-0.2-0.2-0.5,0.1-0.3,0.3
		C392.9,223.4,396.8,222.6,395.7,221.8z"/>
	<path class="st0" d="M394.3,220.3c1,0.7,2.9,1.1,3.9,0.3c0.2-0.1,0.1-0.4-0.1-0.4c-0.9-0.2-1.9,0.5-3.5-0.3
		C394.2,219.7,394,220.1,394.3,220.3z"/>
	<path class="st0" d="M287,204.9c-1-0.3-2.1-0.2-3.2-0.4c-1.2-0.3-2.3-0.9-3.2-1.7c-0.2-0.2-0.4,0.1-0.3,0.3
		c1.5,1.6,4.5,3.6,6.7,2.4C287.3,205.3,287.2,205,287,204.9z"/>
	<path class="st0" d="M281.9,202.5c0.8,0.3,1.6,0.5,2.5,0.7c0.8,0.2,1.6,0.3,2.4,0c0.2-0.1,0.2-0.5,0-0.6c-0.7-0.4-1.5-0.3-2.2-0.4
		c-0.8-0.1-1.6-0.2-2.5-0.3C281.8,201.9,281.6,202.4,281.9,202.5z"/>
	<path class="st0" d="M282.5,199.2c-0.2,0-0.3,0.2-0.1,0.3c1.1,0.6,3.8,1.9,5,1.5c0.2-0.1,0.4-0.4,0.2-0.6
		C286.8,199.8,286.1,199.9,282.5,199.2z"/>
	<path class="st0" d="M292.3,198.1c-1-0.5-1.3-0.2-6.3-0.7c-0.4,0-0.4,0.5-0.1,0.6c1.9,0.4,4.6,1.4,6.4,0.6
		C292.5,198.6,292.5,198.2,292.3,198.1z"/>
	<path class="st0" d="M290.9,195.5c-0.5-0.1-0.6,0.5-0.2,0.7c2.5,1,3.2,1.7,4.2,1.3c0.2-0.1,0.3-0.4,0.1-0.5
		C294.5,196.2,291.6,195.6,290.9,195.5z"/>
	<path class="st0" d="M294.1,193.3c-0.3-0.1-0.5,0.3-0.2,0.5c0.9,0.5,3.8,1.8,5.1,1.4c0.2-0.1,0.3-0.4,0.1-0.5
		C298.5,194.1,298.2,194.1,294.1,193.3z"/>
	<path class="st0" d="M300.1,192.4c-0.6,0-1.2-0.1-1.8-0.2c-0.5-0.1-0.8,0.7-0.2,0.8c2.5,0.9,3.8,0.2,3.3-0.3
		C301,192.4,300.6,192.4,300.1,192.4z"/>
	<path class="st0" d="M304.2,190.8c-0.9,0-1.7,0-2.5-0.5c-0.5-0.3-0.8,0.4-0.4,0.7c0.9,0.6,1.9,0.8,2.9,0.8
		C304.9,191.8,304.9,190.8,304.2,190.8z"/>
	<path class="st0" d="M307.1,190.4c-0.7-0.1-1.3-0.3-2-0.6c-0.5-0.2-0.8,0.6-0.4,0.9c0.7,0.4,1.5,0.7,2.3,0.8
		C307.8,191.5,307.8,190.5,307.1,190.4z"/>
	<path class="st0" d="M340,187.4c-0.2,0-0.4,0-0.6,0c-0.1,0-0.3,0-0.2,0.1c0,0,0,0,0,0c-0.2,0-0.3,0.1-0.3,0.3
		c0.2,0.6,1.3,0.8,1.8,0.9c0.9,0.2,2,0.6,2.9,0.4c0.3-0.1,0.4-0.4,0.2-0.6C343.5,187.9,342.4,187.6,340,187.4z"/>
	<path class="st0" d="M341.1,185.8c-0.4,0.1-0.4,0.7,0,0.7c0.7,0.1,1.4,0.3,2.1,0.5c0.6,0.2,1.3,0.5,1.8,0.1
		C345.8,186.4,343.5,185.4,341.1,185.8z"/>
	<path class="st0" d="M342.6,182.8c-0.5-0.1-0.7,0.6-0.2,0.7c3.1,0.9,3.7,1.8,4.7,1.5C347.8,184.9,347.1,183.5,342.6,182.8z"/>
	<path class="st0" d="M344.9,180.7c-0.4-0.1-0.5,0.4-0.2,0.6c0.5,0.2,1.1,0.4,1.6,0.5c0.5,0.1,1.1,0.4,1.5,0.1
		c0.1-0.1,0.2-0.2,0.1-0.4C347.6,180.8,346.6,181,344.9,180.7z"/>
	<path class="st0" d="M346.6,178.7c-0.3,0.1-0.3,0.6,0,0.7c0.7,0.1,1.5,0.1,2.2,0.2c0.7,0,1.5,0.2,2-0.3c0.1-0.1,0.1-0.4,0-0.5
		C350.2,178.2,347.4,178.6,346.6,178.7z"/>
	<path class="st0" d="M349.4,176.9c-0.3,0.2,0,0.6,0.3,0.5c2.8-0.6,2.7,0.4,4,0.3c0.3,0,0.3-0.4,0.2-0.6
		C353,175.9,350.5,176.1,349.4,176.9z"/>
	<path class="st0" d="M353.7,174.1c-0.6,0-0.6,0.9,0,0.9c1.9,0.2,2.9,0.8,3.7,0.1C358.4,174.4,355.5,174,353.7,174.1z"/>
	<path class="st0" d="M181.6,197.8c-0.3,0.1-0.4,0.3-0.7,0.4c-0.3,0.1-0.2,0.5,0.1,0.4c0.1,0,0.3,0.1,0.5,0.1c1.6-0.1,2.7,0.3,3.7,0
		c0.3-0.1,0.4-0.4,0.2-0.6C184.5,197.3,182.7,197.5,181.6,197.8z"/>
	<path class="st0" d="M185,195.8c-0.3,0.1-0.3,0.6,0,0.7c3.4,0.7,3.5,0.8,4.1,0.6c0.2-0.1,0.3-0.4,0.1-0.5
		C188.4,195.8,186.1,195.6,185,195.8z"/>
	<path class="st0" d="M191.1,194.9c-0.8-0.1-1.5-0.3-2.3-0.4c-0.5-0.1-0.8,0.7-0.2,0.8c1.1,0.3,3,1.1,4.1,0.5c0.2-0.1,0.2-0.4,0-0.5
		C192.2,194.9,191.6,194.9,191.1,194.9z"/>
	<path class="st0" d="M192,193.4c-0.4,0-0.4,0.6,0,0.6c1.5,0.1,4.9,1.1,4,0.2C195,193.1,193.4,193.3,192,193.4z"/>
	<path class="st0" d="M196.7,192.4c-0.4,0-0.6,0.2-0.9,0.3c-0.3,0.1-0.2,0.4,0.1,0.4c0.2,0,0.4,0.2,0.6,0.2c1.4,0.2,2.6,0.8,3.6,0.6
		c0.2,0,0.5-0.3,0.3-0.5C199.6,192.5,197.9,192.3,196.7,192.4z"/>
	<path class="st0" d="M200.6,191.6c-0.3,0.1-0.3,0.6,0,0.7c3.4,0.7,3.5,0.8,4.1,0.6c0.2-0.1,0.3-0.4,0.1-0.5
		C204.1,191.6,201.7,191.4,200.6,191.6z"/>
	<path class="st0" d="M207.7,191.4c-0.8-0.1-1.5-0.3-2.3-0.4c-0.5-0.1-0.8,0.7-0.2,0.8c1.1,0.3,3,1.1,4.1,0.5c0.2-0.1,0.2-0.4,0-0.5
		C208.9,191.4,208.3,191.4,207.7,191.4z"/>
	<path class="st0" d="M208.8,190.4c-0.4,0-0.4,0.6,0,0.6c1.5,0.1,4.9,1.1,4,0.2C211.8,190.1,210.2,190.3,208.8,190.4z"/>
	<path class="st0" d="M498.2,182.3c-2.9-19.1-24.2-20.6-21.6-19.6c14,5.6,20.7,13,19.4,27.2c-1.2-0.9-2.6-1.6-4.1-1.9
		c-0.3-0.1-0.6,0.4-0.2,0.6c2.1,1.2,4.7,4.1,5,6.9c0.1,0.9-0.1,4.2,0.1,5.2c0.5,2.3,3.1-4.7,0.8-9.1
		C499,189.1,498.6,184.9,498.2,182.3z"/>
	<path class="st0" d="M429.1,207c8.7-2,12.8-6.9,11.1-6.8c-0.3,0-4,2-10.7,4c-4,1.2-8,0.1-12-0.1c-0.2,0-0.3,0.2-0.1,0.3
		c2,1.8,4.5,2.7,7.1,2.9c-0.6,0.4-1.2,0.8-1.8,1.2c-2.9,1.7-6,2.9-9.3,3.7c-6.5,1.6-13,0.6-18.7-3.1c-0.4-0.2-0.8,0.3-0.4,0.6
		c7.8,7.2,18.3,6.6,28.1,2C424.6,210.6,427.5,209.1,429.1,207z"/>
	<path class="st0" d="M407.8,210.2c1.4,0.3,3.4,0.7,4.7,0.1c0.7-0.3-0.9-1.3-4.7-0.4C407.6,209.9,407.6,210.2,407.8,210.2z"/>
	<path class="st0" d="M411.6,208.3c0.8,0.4,2.3,1.2,3.2,0.6c0.2-0.1,0.2-0.3,0-0.5c-0.4-0.2-0.8-0.3-1.3-0.3
		c-0.6-0.1-1.1-0.2-1.7-0.4C411.5,207.8,411.2,208.2,411.6,208.3z"/>
	<path class="st0" d="M415.3,206.6c0.1-0.1,0.1-0.3,0-0.3c-0.4-0.2-0.8-0.1-1.2-0.1c-0.4,0-0.8,0-1.2-0.2c-0.2-0.1-0.3,0.2-0.1,0.3
		C413.5,206.7,414.6,207,415.3,206.6z"/>
	<path class="st0" d="M427.7,202.3c-0.6-0.4-1.4-0.4-2.1-0.6c-0.7-0.1-1.5-0.3-2.1-0.7c-0.3-0.1-0.7,0.3-0.4,0.5
		C426.6,204.4,428.5,202.9,427.7,202.3z"/>
	<path class="st0" d="M426.6,201c0.5,0,0.9,0.1,1.4,0.2c0.4,0.1,0.9,0.3,1.3,0.1c0.1-0.1,0.2-0.2,0.1-0.3c-0.3-0.9-2.1-0.6-2.9-0.6
		C426.1,200.4,426.1,201,426.6,201z"/>
	<path class="st0" d="M433.5,200.1c-0.7-0.5-0.2-0.2-1.4-0.5c-0.6-0.1-1.2-0.3-1.7-0.6c-0.4-0.2-0.9,0.3-0.5,0.6
		C432.5,201.8,434.1,200.6,433.5,200.1z"/>
	<path class="st0" d="M431.7,198.4c0.9,0,1.8,0.5,2.6,0.2c0.7-0.2-0.9-0.8-2.6-0.8C431.3,197.8,431.3,198.4,431.7,198.4z"/>
	<path class="st0" d="M433.5,196.8c1.5,0.9,3.1,0.4,2.7-0.1c-0.3-0.4-0.7-0.3-1.2-0.3c-0.4,0-0.9-0.1-1.3-0.2
		C433.4,196,433.2,196.6,433.5,196.8z"/>
	<path class="st0" d="M491.2,145.3c0.7-0.2,1.2-0.7,1.8-1c0.7-0.4,1.5-0.5,2.2-0.8c0.2-0.1,0.2-0.4,0-0.4
		C493.2,142.6,490.6,145.5,491.2,145.3z"/>
	<path class="st0" d="M493.2,145.8c-0.1,0.1,0.1,0.3,0.2,0.2c0.6-0.6,1.8-1,2.5-1.2c0.6-0.1,1.4-0.1,1.8-0.6
		c0.2-0.2,0.1-0.4-0.1-0.5c-0.7-0.3-1.8,0.1-2.5,0.4C494.1,144.5,493.7,144.9,493.2,145.8z"/>
	<path class="st0" d="M495.9,146.3c0.6-0.1,1.2-0.3,1.8-0.4c0.5-0.1,1-0.1,1.4-0.3c0.2-0.1,0.1-0.3,0-0.4
		C498.1,144.8,495.2,146.4,495.9,146.3z"/>
	<path class="st0" d="M496.5,147.8c-0.2,0.2,0,0.6,0.3,0.5c0.6-0.4,1.3-0.7,2-0.9c0.6-0.1,1.4-0.1,2-0.5c0.6-0.4-0.2-1-2.4-0.2
		C497.7,146.9,497.1,147.2,496.5,147.8z"/>
	<path class="st0" d="M498.5,149.5c0.7-0.3,1.6-0.5,2.3-0.6c0.6-0.1,1.1-0.1,1.6-0.5c0.1-0.1,0.1-0.3,0-0.3
		C500.3,147.7,497.7,149.9,498.5,149.5z"/>
	<path class="st0" d="M391.3,159.6c0.7,0.2,1.5,0.1,2.3,0.3c0.7,0.2,1.3,0.5,2,0.6c0.6,0.1-2.5-2.2-4.3-1.3
		C391.1,159.3,391.1,159.6,391.3,159.6z"/>
	<path class="st0" d="M390.9,161.2c0.8,0,2.1,0.1,2.7,0.6c0.1,0.1,0.3-0.1,0.2-0.2c-0.7-0.8-1.2-1.1-2.3-1.2
		c-0.7-0.1-1.9-0.3-2.5,0.2c-0.2,0.1-0.2,0.4,0,0.5C389.5,161.3,390.3,161.2,390.9,161.2z"/>
	<path class="st0" d="M388,162.5c0.4,0.1,1,0,1.5,0c0.6,0,1.2,0,1.8,0c0.7,0-2.5-1-3.3-0.4C387.8,162.3,387.8,162.5,388,162.5z"/>
	<path class="st0" d="M386.5,164.3c0.6,0.2,1.4,0,2,0c0.7,0,1.5,0.1,2.2,0.4c0.3,0.1,0.5-0.4,0.2-0.5c-0.7-0.4-1.4-0.6-2.1-0.7
		C386.4,163.2,385.9,164,386.5,164.3z"/>
	<path class="st0" d="M385.3,166.1c0.6,0.2,1.1,0.1,1.7,0.1c0.8-0.1,1.6-0.1,2.4,0.1c0.9,0.1-2.1-1.4-4.1-0.5
		C385.1,165.9,385.1,166.1,385.3,166.1z"/>
	<path class="st0" d="M384,168.4c0.6,0.1,1.1-0.2,1.7-0.3c0.9-0.2,1.8-0.2,2.7,0c0.2,0,0.4-0.3,0.2-0.4c-1.3-0.6-3.7-1.1-4.7,0.2
		C383.6,168.1,383.8,168.4,384,168.4z"/>
	<path class="st0" d="M383.7,170.1c0.6,0.2,2.4-0.2,3-0.3c0.1,0,0.1-0.2,0-0.3c-1.1-0.2-2.5-0.4-3.1,0.2
		C383.4,169.8,383.5,170,383.7,170.1z"/>
	<path class="st0" d="M382.5,172.2c0.5,0,1-0.2,1.4-0.4c0.5-0.2,1.1-0.2,1.6-0.2c0.2,0,0.2-0.3,0-0.3
		C382.5,170.6,381.8,172.1,382.5,172.2z"/>
	<path class="st0" d="M381.6,174.7c0.6,0.1,1.1-0.3,1.6-0.5c0.7-0.3,1.5-0.4,2.2-0.5c0.2,0,0.3-0.3,0-0.4c-1.4-0.4-3.6-0.1-4.1,1
		C381.4,174.5,381.5,174.7,381.6,174.7z"/>
	<path class="st0" d="M381.3,177.8c0.6,0,1-0.7,1.5-1c0.6-0.4,1.3-0.5,2-0.6c0.1,0,0.2-0.3,0-0.3c-1.8-0.8-4.1,0.8-3.8,1.8
		C381,177.7,381.1,177.8,381.3,177.8z"/>
	<path class="st0" d="M381.8,180c0.4-0.4,0.8-0.5,1.3-0.5c0.3,0,0.4-0.5,0.1-0.6C380.3,178.4,379.6,182.1,381.8,180z"/>
	<path class="st0" d="M479.2,166.7c-1.9-0.5-4.6,2.4-4,2.2c0.7-0.2,1.2-0.7,1.8-1c0.7-0.3,1.5-0.5,2.2-0.8
		C479.4,167,479.4,166.8,479.2,166.7z"/>
	<path class="st0" d="M481.8,168c0.2-0.2,0.1-0.4-0.1-0.5c-0.7-0.3-1.8,0.1-2.5,0.4c-1,0.4-1.4,0.8-2,1.7c-0.1,0.1,0.1,0.3,0.2,0.2
		c0.6-0.6,1.8-1,2.5-1.2C480.5,168.4,481.4,168.4,481.8,168z"/>
	<path class="st0" d="M483.1,169.3c0.2-0.1,0.1-0.3,0-0.4c-1-0.4-3.8,1.2-3.2,1.1c0.6-0.1,1.2-0.3,1.8-0.4
		C482.1,169.5,482.7,169.5,483.1,169.3z"/>
	<path class="st0" d="M484.9,170.6c0.6-0.4-0.1-1-2.4-0.3c-0.7,0.3-1.4,0.5-1.9,1.1c-0.2,0.2,0,0.6,0.3,0.5c0.6-0.4,1.3-0.7,2.1-0.9
		C483.5,171,484.4,171,484.9,170.6z"/>
	<path class="st0" d="M486.5,172.2c0.1-0.1,0.1-0.3,0-0.3c-2.2-0.5-4.8,1.7-3.9,1.4c0.7-0.3,1.6-0.5,2.3-0.6
		C485.5,172.6,486,172.5,486.5,172.2z"/>
	<path class="st0" d="M483.9,174.7c0.8-0.3,1.7-0.5,2.6-0.5c0.6,0,1.2,0.1,1.7-0.1c0.2-0.1,0.2-0.4,0.1-0.5
		c-1.3-1.1-3.6-0.1-4.7,0.8C483.5,174.5,483.7,174.8,483.9,174.7z"/>
	<path class="st0" d="M485.8,175.8c-0.1,0-0.1,0.3,0.1,0.3c0.6,0,2.5,0,3-0.3c0.1-0.1,0.2-0.3,0-0.4
		C488.2,174.9,486.9,175.4,485.8,175.8z"/>
	<path class="st0" d="M487.3,177.3c-0.2,0.1-0.1,0.4,0.1,0.3c0.5-0.2,1.1-0.2,1.6-0.1c0.5,0.1,1,0.2,1.5,0.1
		C491.1,177.3,490.1,176,487.3,177.3z"/>
	<path class="st0" d="M487.8,179.3c-0.2,0.1-0.1,0.4,0.1,0.4c0.7-0.1,1.5-0.1,2.2,0c0.6,0.1,1.1,0.3,1.7,0.1
		c0.1-0.1,0.2-0.3,0.1-0.4C491.4,178.4,489.1,178.7,487.8,179.3z"/>
	<path class="st0" d="M489.1,181.6c-0.1,0.1,0,0.3,0.1,0.3c0.7,0,1.4,0,2,0.2c0.5,0.2,1.1,0.8,1.7,0.7c0.1,0,0.3-0.2,0.3-0.3
		C493.2,181.5,490.7,180.4,489.1,181.6z"/>
	<path class="st0" d="M491.3,184.3c-0.3,0.1-0.1,0.6,0.2,0.6c0.5-0.1,0.9-0.1,1.4,0.2C495.4,186.7,494,183.2,491.3,184.3z"/>
	<path class="st0" d="M444.6,133.5c0.5-0.4,0.9-1,1.4-1.5c0.5-0.6,1.2-1,1.7-1.5c0.1-0.1,0-0.4-0.2-0.4
		C445.5,130.3,444,133.9,444.6,133.5z"/>
	<path class="st0" d="M446.6,133.4c0,0.1,0.2,0.2,0.2,0.1c0.3-0.8,1.3-1.5,2-2c0.5-0.3,1.3-0.6,1.5-1.2c0.1-0.2,0-0.4-0.3-0.4
		c-0.8,0-1.7,0.8-2.2,1.2C447,131.8,446.8,132.3,446.6,133.4z"/>
	<path class="st0" d="M449.3,132.9c0.5-0.3,1-0.7,1.5-1c0.4-0.2,0.9-0.4,1.2-0.8c0.1-0.1,0-0.3-0.2-0.3
		C450.8,130.7,448.7,133.2,449.3,132.9z"/>
	<path class="st0" d="M451.9,132.4c-0.6,0.5-1.1,1-1.4,1.7c-0.1,0.3,0.3,0.6,0.5,0.3c0.4-0.6,1-1.1,1.6-1.5c0.5-0.3,1.3-0.6,1.7-1.1
		C454.6,131.2,453.7,130.9,451.9,132.4z"/>
	<path class="st0" d="M456.3,132.7c0.1-0.1,0-0.3-0.1-0.3c-2.2,0.3-3.9,3.2-3.2,2.6c0.6-0.5,1.3-1,2-1.4
		C455.4,133.4,455.9,133.2,456.3,132.7z"/>
	<path class="st0" d="M457,134.5c0.6-0.2,1.1-0.3,1.6-0.7c0.2-0.1,0.1-0.4-0.1-0.5c-1.6-0.6-3.4,1.1-4.1,2.4
		c-0.1,0.2,0.2,0.4,0.3,0.2C455.3,135.4,456.1,134.9,457,134.5z"/>
	<path class="st0" d="M459.6,134.8c-0.8-0.1-1.9,0.8-2.7,1.6c-0.1,0.1,0,0.3,0.1,0.2c0.5-0.2,2.4-0.9,2.7-1.3
		C459.8,135,459.8,134.8,459.6,134.8z"/>
	<path class="st0" d="M461.9,136.3c0.5-0.4-0.9-1.3-3.1,0.9c-0.1,0.1,0.1,0.4,0.2,0.3c0.5-0.3,0.9-0.6,1.5-0.7
		C460.9,136.6,461.5,136.6,461.9,136.3z"/>
	<path class="st0" d="M463.9,138c0.1-0.1,0.1-0.3,0-0.4c-0.9-0.7-3,0.3-3.9,1.4c-0.2,0.2,0.1,0.4,0.2,0.3c0.6-0.3,1.4-0.6,2.1-0.8
		C462.9,138.3,463.5,138.4,463.9,138z"/>
	<path class="st0" d="M465.9,140.4c0.1-0.1,0.2-0.2,0.1-0.4c-0.3-1-3-1.1-4.1,0.6c-0.1,0.1,0.1,0.3,0.2,0.3c0.6-0.2,1.3-0.5,2-0.5
		C464.7,140.3,465.4,140.7,465.9,140.4z"/>
	<path class="st0" d="M464.9,142.3c-0.2,0.2,0.1,0.7,0.4,0.5c0.4-0.3,0.8-0.4,1.3-0.3C469.6,143.2,467.1,140.4,464.9,142.3z"/>
	<path class="st0" d="M523.6,181.9c-0.6,0.3-1.5,0.6-2,1.2c-0.1,0.2,0,0.4,0.2,0.5c1.3,0.2,3.5-1.9,4.6-3.6c0.1-0.1-0.1-0.2-0.2-0.1
		C525.5,180.6,524.5,181.3,523.6,181.9z"/>
	<path class="st0" d="M524.9,179.4c0.1-0.2-0.1-0.4-0.3-0.3c-1.1,0.9-2.4,1.5-3.7,1.8C519.8,181.1,523,182.9,524.9,179.4z"/>
	<path class="st0" d="M523.1,177c-0.8,0.5-1.8,0.8-2.5,1.4c-0.6,0.5,1.6,1.6,5.4-2.8c0.1-0.1-0.1-0.3-0.2-0.2
		C524.8,175.9,524,176.5,523.1,177z"/>
	<path class="st0" d="M519.6,175.6c-0.1,0.1-0.1,0.4,0.1,0.4c2,0.8,5.1-1.6,6.1-3.1c0.1-0.1-0.1-0.3-0.2-0.2c-1,0.6-1.9,1.3-3,1.7
		C521.7,174.8,520.4,175,519.6,175.6z"/>
	<path class="st0" d="M524.6,171.3c0.2-0.2,0-0.6-0.3-0.4c-2.4,1.6-3.1,1.2-4,1.7C519.7,172.9,521.2,174.2,524.6,171.3z"/>
	<path class="st0" d="M519.3,170.5c-0.1,0.1-0.1,0.3,0.1,0.4c1,0.3,2.8-0.8,3.5-1.4c0.2-0.2,0-0.5-0.2-0.4c-0.6,0.4-1.2,0.6-1.9,0.9
		C520.3,170,519.7,170.1,519.3,170.5z"/>
	<path class="st0" d="M516.9,168.9c-0.1,0.1-0.2,0.4,0,0.4c1.5,0.4,3.1-1.1,4.3-1.9c0.2-0.2,0-0.6-0.3-0.4c-0.7,0.4-1.3,0.8-2.1,1.1
		C518.2,168.4,517.5,168.6,516.9,168.9z"/>
	<path class="st0" d="M516.4,167.2c-0.1,0.2,0,0.4,0.2,0.4c0.8,0.1,3-1.3,3.7-1.8c0.2-0.2,0-0.5-0.3-0.4c-0.7,0.3-1.3,0.5-2,0.8
		C517.5,166.5,516.8,166.7,516.4,167.2z"/>
	<path class="st0" d="M515.8,165.2c1,0.1,2.1-0.9,2.7-1.6c0.2-0.2-0.1-0.6-0.3-0.3c-1.2,1.1-1.8,1.1-2.5,1.7
		C515.6,165,515.7,165.2,515.8,165.2z"/>
	<path class="st0" d="M515.5,162.6c0.4-0.3,0.8-0.7,1.2-1.1c0.2-0.2-0.1-0.5-0.3-0.4c-0.4,0.3-0.9,0.7-1.3,1
		c-0.3,0.2-0.8,0.4-0.9,0.8C514,163.2,514.5,163.5,515.5,162.6z"/>
	<path class="st0" d="M514.6,159.3c-0.5,0.5-1,1-1.6,1.4c-0.5,0.3-1.2,0.6-1.3,1.2c0,0.1,0,0.2,0.1,0.3c1,0.5,2.5-1.5,3.1-2.5
		C515.1,159.3,514.8,159,514.6,159.3z"/>
	<path class="st0" d="M511.8,156.7c-0.2,0.7-0.5,1.2-1,1.7c-0.4,0.4-1.1,0.7-1.1,1.3c-0.1,1,2.5,0.2,2.9-2.9
		C512.6,156.4,511.9,156.3,511.8,156.7z"/>
	<path class="st0" d="M509,156.2c-0.2,0.6-0.5,1.1-0.9,1.5c-0.3,0.4-0.9,0.7-0.8,1.3c0.1,0.7,1.8,0.2,2.3-2.7
		C509.7,155.9,509.1,155.8,509,156.2z"/>
	<path class="st0" d="M506.1,155.2c-0.2,0.5-0.5,1-0.8,1.5c-0.2,0.3-0.5,0.7-0.5,1.1c0,0.2,0.1,0.4,0.3,0.3c0.9-0.3,1.3-1.8,1.6-2.7
		C506.9,155,506.3,154.8,506.1,155.2z"/>
	<path class="st0" d="M503.3,154.8c0,0.5-0.1,0.9-0.3,1.3c-0.1,0.3-0.4,0.6-0.3,0.9c0,0.1,0.1,0.2,0.2,0.2c1,0,1.2-1.8,1.2-2.4
		C504.1,154.3,503.4,154.3,503.3,154.8z"/>
	<path class="st0" d="M600.7,199.1c-5.3-0.8-7.6-1.4-12.2-4c-9.8-5.6-16.2-4.3-27.2-2.2c-3.5-4.4-13.9-10.9-28.7-10.3
		c1.8-9.2-4.2-25.5-21.1-32.9c-0.5-3.5-3-7.5-4.8-9.1c-7.4-6.6-22.1-4.9-31.6-2.3c-16.5-22.5-52.8-18.9-56.2-6.4
		c-9.3-0.7-18.4,7.9-18,16.2c-5.1,0.6-10.1,1.9-15.4,6.3c-4.7,3.9-8.3,9.7-10.3,14.4c-3.5-2.2-7.7-3.3-12.5-3.3
		c-12.6,0-27.5,8.2-29.9,18.9c-4.9-1.9-10.5-2.9-16.8-2.9c-17.1,0-35.5,7.3-44.4,17.5c-9.9-3.7-22.3-4-31.7-2
		c-4-6.2-16.7-13.9-32.3-13.9c-12.4,0-24.5,4.1-32.8,11c-6.1-2.8-11.9-2.7-17.2-2.6c-9.2,0.1-32.9,2.9-32.6,12.1
		c0.2,5.3,9.6,11.4,24.1,5c6.6,3.4,20,7.2,27.6,6.7c11.7-0.8,10.9-3.6,21.7,2.2c4.6,2.5,8.4,4.5,16.7,4.5c0.1,0,9.7-0.1,13.6-2.5
		c7.5,3.6,20.1,5,27.2,5c9.8,0,18.7-3.4,24.3-4.7c0.4,4,9.7,5,13.7,5c3.9,0,6.9-0.4,15.6-1.4c1.7,4,8,4.9,12.3,4.9
		c10.6,0,17.5-5.9,24.6-4.7c11.6,1.9,9,8.6,35.8,8c5-0.1,14.6,0.1,25.6-3.5c7.9,5.4,15.8,6.3,25.9,5c12.5-1.6,15.8-9,21-9
		c8,0,18.3,15.2,50.5-2.1c1.5-0.8,3-1.6,4.4-2.7c19.3,6.1,39.1,1.8,47.7-4.7c6.9,2.5,20.3,1.8,28.7,3.6c9,2,17.2,4.7,24.8,4.7
		c0,0,0,0,0,0C628,222.9,642.8,205.7,600.7,199.1z M614.7,217.5c-7.9,1.4-20.7-3.1-29.5-4.6c-7.1-1.2-21.8-1.7-26.1-2.4
		c0.8-0.8,1.4-1.7,2-2.7c0.5-1,0.7-1.9-0.1-1.1c-7.4,7.6-21.5,10.2-32,10.4c-11.1,0.2-20.8-3.4-31.2-6.5c-0.2-0.1-0.4,0.2-0.2,0.4
		c2.5,2,5.3,3.6,8.4,4.9c-37.5,20.3-40.2,1.5-53,3.3c-6.5,0.9-11,7.1-17.5,8.4c-23.4,4.5-29.4-9-39.9-10.7c-0.4-0.1-0.4,0.6-0.1,0.8
		c3.7,2.4,4.1,1.9,9.7,6.1c-5.2,0.9-10.3,2.4-15.7,2.7c-24.6,1.5-26.2-1.5-36.9-5.9c-15.2-6.2-19.5,5.1-34.9,2.7
		c-5.4-0.9-4.9-3-1.2-6.4c3-2.8,7.3-3.4,12.9-6.3c0.2-0.1,0.1-0.5-0.2-0.4c-3.8,0.5-13.9,1.5-17.5,8.3c-3.1,1.3-24.8,4.2-25.9,0.3
		c1-2.1,0.6-4.2-2.7-4.2c-4.5,0-9.2,2-13.4,3.3c-12.5,3.8-34.5,2.2-45.3-5.2c-0.3-0.2-0.7,0.2-0.5,0.5c0.6,1,1.4,1.8,2.2,2.5
		c-23.2,5.5-26.1-5.7-37.3-6.2c-3.1-0.1-6.2,0.6-9.2,1.1c-13.5,2.1-30.3-6.6-34.1-7.9c-0.5-0.2-0.9,0.5-0.5,0.8
		c0.7,0.6,1.4,1.2,2.1,1.7c-4,1.5-8.4,2.8-12.7,2c-1.3-0.2-4.9-1.7-4.9-3.5c-0.1-3,8.5-4.8,10.4-5.3c10.9-2.8,22.6-3.2,33.4-0.1
		c-0.4,0.4-0.8,0.7-1.1,1.1c-0.2,0.2,0.1,0.6,0.3,0.4c15.5-9,32.6-14.9,49.7-9.3c8.4,2.8,11.9,7.9,14.3,10.1c-4.5,1.5-7.4,4-6.4,3.8
		c3.4-0.7,6.7-2,10.1-2.7c11.1-2.4,24.7-2,35.4,4.1c1.4,0.8,3.7,0.2,2.2-0.6c-1-0.6-2.5-1.8-3.5-2.3c2.3-4,35.3-29.2,66.6-8.4
		c0.6,0.4,1.4-0.3,1-1c-1.2-2-3.1-3.5-5.3-4.7c0.5-3.3,1.7-6.2,4-8.9c6.8-7.7,25.4-12.7,34.7-5c-0.9,5.7,2.7,8,2.4,6.9
		c-0.7-2.3-2.3-14.1,11.9-24.7c8.9-6.7,19.9-4,23.6-6.2c0.3-0.2-1.3-0.5-1.7-0.6c-2-0.3-3.6-0.8-7-0.6c0.1-5.4,5-12.4,12.3-13.1
		c1-0.1,4.2,0.4,5.7,1.8c0.6,0.5,2.2,0.9,1.8,0.3c-1.8-2.5-2.6-7,2.6-9.5c2.7-1.3,24.3-9.8,45.2,12.1c-1.7,0.7-3.3,1.6-4.5,2.8
		c-0.2,0.2-0.1,0.7,0.3,0.7c3-0.3,6-1.4,8.9-2.1c11.4-2.6,27.9-3.7,30,7.8c-2.3-0.1-4.8-0.3-7,0c-1,0.1-1.5,1-0.5,1.1
		c27.1,3.5,32.5,26.9,26.6,33.8c-4.7,1-9,3-11.8,6.5c4.8-0.1,26-12.9,42.5,4c-1.6,0.4-3.2,1-4.6,1.9c-0.4,0.2-0.4,0.9,0.1,1
		c5-0.7,9.7-1.7,19.4-2.5c9.7-0.8,13,2.7,17.4,4.9c8.5,4.2,25.3,2.9,33.1,10.8C622.5,215.7,617.9,217,614.7,217.5z"/>
</g>
<g>
	<path class="st0" d="M706.7,156.5c-2.1-11.9-14.1-19.2-21.9-19.3c3.3-26-21.4-39-35.5-33.6c-6-31.4-45-29-58.9-11.8
		c-5.3-6.4-16.1-13.4-30.8-13.4c-28.4,0-49.6,24.2-49.3,39.6c-33.1-8-63.6,42.6-34.7,72.8c14,14.6,40.1,21.8,59.7,7.4
		c9,14.1,35.7,17.3,45.3,3.6c12.2,13.3,38,10.6,43.2-4.3c7.3,5.9,17.9,9.5,28.2,9.5c19.9,0,27-13.2,26.4-21
		C694.1,187.5,709.7,173.1,706.7,156.5z M671.6,179.6c-0.8-0.2-1.6,1-0.5,1.5c0.3,0.8,6.5,5.8-1.5,14.9c-4.1,4.7-9.7,5.8-15.7,6
		c-14.1,0.4-26-6.1-34.6-16.8c-0.6-0.7-1.5,0.2-1.2,0.9c0.8,1.6,1.7,3.1,2.8,4.5c-0.7,4.1-1.4,7.4-4.6,10.4
		c-4.6,4.3-15.1,6.4-24.8,2.2c-7.2-3.2-8.6-8.4-10.8-11.8c-0.2-0.4-0.8-0.3-0.9,0.1c-0.8,2.6,0.7,0.4-1.5,5.2
		c-2.8,3.4-7,10.6-20.5,8.7c-14.2-2-19.3-12-20-12.8c1-1,2-2,2.9-3c4,6.6,11.6,8.8,19,9.8c0.5,0.1,0.6-0.8,0.1-0.9
		c-7.5-1.7-13.1-4.6-17.8-10.5c0.5-0.6,1-1.3,1.4-2c3.7,5.2,9.7,6.8,15.9,7.2c0.5,0,0.5-0.8,0-0.8c-6.2-0.8-10.7-3.7-14.9-8
		c0.3-0.4,0.5-0.9,0.8-1.3c2.6,3.1,8.2,4.7,11.8,3.8c0.5-0.1,0.5-0.9,0-1c-4.1-0.6-8-1.6-10.9-4.6c3.4-6.8,4.6-14.4,2.5-21.9
		c-4-14.4-22.5-18-35-13.9c-17.4,5.8-19.1,27.8-0.9,32.3c15.3,3.8,22.4-12.7,16.1-19.1c-3.5-3.5-10.3-3-12.8,1.4
		c-2,3.5-0.2,10.8,6,7.5c0.2-0.1,0.1-0.4-0.2-0.4c-4.2,1-6.1-2.8-4.3-6.2c2.7-5.2,16.4-2.2,9.5,9.3c-2.2,3.7-5.8,5-9.9,5
		c-12.1,0-19.8-11-10.8-21c11-12.2,38-9.6,39.8,10.2c0.9,10-3.5,20.5-10.6,27.2c-15.7,15-40.9,10.5-55.8-3.3
		c-21.7-20.2-8.4-56.3,14.7-65.1c9.5-3.7,21.3,1.1,28.6,6.1c1.1,0.8-0.6-2.5-1.8-3.2c-2-1.3-3.2-2.3-5.2-3.2
		c-0.9-6.8-1.9-10.4,5.4-20.3c13.9-18.8,41.3-25.2,59.2-12.9c3.5,2.4,5.6,6.3,8.9,8.8c0,0,0,0,0,0c-15-2.3-20.4,7.8-18.6,6.3
		c8.8-7.2,21.8-5.3,29.4,0.6c3.9,3.1,5.3,6.7,6.9,11.2c0.2,0.6,1.6,3.2,1.6,2.4c0-10.8-9.4-18.6-18.1-20.3
		c10.4-15.9,33.9-18.4,45.4-9c6.8,5.7,8.3,15.9,8.9,24.2c0.1,0.7,1.8-1.6,2-4.8c8.9-4.9,20-0.3,26.6,6.4c7.5,7.5,7.7,20.2,3.3,29.2
		c-0.3,0.6,0.3,1.4,1,1c3.1-2.1,5.3-7.1,15.3-0.8C711.1,156.3,700.6,186.6,671.6,179.6z"/>
	<path class="st0" d="M537.3,95.7c-4.6,1.8-8.8,4.6-11.8,8.6c-7.5,9.9-4.2,15.3-3.5,13.6c0.7-1.8,0.8-3.7,1.3-5.5
		c1.1-4.2,5.8-12.1,14.2-16.3C537.7,96,537.5,95.6,537.3,95.7z"/>
	<path class="st0" d="M532.2,103.8c-2.7,1.4-4,3.3-5.2,6.1c-3.1,7.4-0.8,10.1-0.3,9c1-2,0.7-4.9,1.2-7.1c0.6-2.6,2.1-6.1,4.3-7.7
		C532.5,103.9,532.4,103.7,532.2,103.8z"/>
	<path class="st0" d="M531.3,110.8c-4,6-2.1,11.6-1.4,9.8c0.5-1.3,0.3-2.8,0.4-4.1c0.1-1.9,0.6-3.8,1.2-5.5
		C531.6,110.8,531.4,110.7,531.3,110.8z"/>
	<path class="st0" d="M473.4,159.8c0-0.3-0.5-0.3-0.5,0c-1.4,14.4,8.6,25.5,14.8,27c0.5,0.1,0.8-0.5,0.5-0.9
		C484.6,181.6,475,180.2,473.4,159.8z"/>
	<path class="st0" d="M477.9,164.1c0-0.2-0.3-0.3-0.4,0c-1.4,9.1,8,18.1,12.6,19.5c0.4,0.1,0.8-0.4,0.6-0.7
		C487.2,178.1,479.1,176.3,477.9,164.1z"/>
	<path class="st0" d="M483.5,169.1c-0.1-0.2-0.4-0.1-0.3,0.1c1.4,6.1,6.9,10.9,9.6,10.4c0.2,0,0.3-0.3,0.2-0.5
		C492,177.9,486.8,176.5,483.5,169.1z"/>
	<path class="st0" d="M659.3,187.7c-5.5,5-15.5,6.7-23.2,3c9.2,0.3,14.4-5.9,12.9-5.4c-4.3,1.7-11.2,5.1-17.3,2.5
		c-0.2-0.2-0.3-0.3-0.5-0.5c3.7,0.8,8-0.3,10.8-2.5c0.2-0.2-0.1-0.5-0.3-0.4c-5.4,2.9-10.7,0.6-15.5-2c-0.6-0.4-1.5,0.4-1,1
		c0.4,0.6,0.8,1.1,1.3,1.5c-1.5,2.9,18.2,18.9,33.3,3.1C660.1,187.8,659.7,187.4,659.3,187.7z"/>
	<path class="st0" d="M690.9,151.4c5.6,12.5-2,23.1-12.3,23.4c6.6-3.1,11.6-10.9,8.8-17.7c0-0.1-0.2-0.1-0.2,0
		c-0.3,8.8-5.6,16.8-14,16.6c4.1-1.7,7.3-6.3,7.5-10.7c0-0.4-0.5-0.4-0.6-0.1c-3.3,9.7-8.1,9.7-13.4,9.2c-0.7-0.1-1,0.8-0.6,1.3
		c0,1.1,2.6,2.1,3.7,2.4c7.2,3.3,15.9,1.1,21-5.1c4.5-5.5,5.2-14.1,0.4-19.7C691.1,150.9,690.8,151.2,690.9,151.4z"/>
	<path class="st0" d="M667.4,146.5c-0.5,0.6,0.2,1.6,0.8,1.1c10.2-7.7,6.4-25-4.5-29.9c-0.3-0.1-0.5,0.2-0.2,0.4
		C672.8,124.8,674.9,137.6,667.4,146.5z"/>
	<path class="st0" d="M665.8,128.1c3.6,8.3,0,14-3.4,21.4c-0.3,0.7,0.6,1.7,1.2,0.9C675,136.6,664.7,125.4,665.8,128.1z"/>
	<path class="st0" d="M661.1,135.3c-0.2-0.3-0.6,0-0.5,0.3c1.2,2.7,1.5,5.6,1,8.4c-0.5,2.6-2.2,4.2-3,6.6c-0.2,0.4,0.4,0.7,0.7,0.5
		C662.5,149.6,665.4,141.2,661.1,135.3z"/>
	<path class="st0" d="M637.3,106.1c0.9,3.5-0.8,6-1.2,9.3c-0.1,0.5,0.7,0.9,1.1,0.6c3.4-2.5,4.8-11.3-3.4-19.8
		c-5.1-5.2-14.7-10.2-21.7-5.9c-0.1,0.1-0.1,0.3,0.1,0.3C623.3,88,634.8,96.2,637.3,106.1z"/>
	<path class="st0" d="M632.7,119.2c0,0.7,0.9,0.9,1.3,0.3c5.2-8.2-1.1-20.1-9.6-22.8c-0.3-0.1-0.4,0.3-0.2,0.4
		C636.8,106.7,632.9,111.9,632.7,119.2z"/>
	<path class="st0" d="M629.4,120c0,0.3,0.3,0.5,0.6,0.4c2.8-0.9,2.6-7.8-1.2-12.7c-0.2-0.3-0.7,0.1-0.5,0.4c1.5,2.5,2.5,6.3,1.8,9.4
		C629.9,118.5,629.4,119,629.4,120z"/>
	<path class="st0" d="M603.6,120.3c0.2,0.3,0.6,0.1,0.7-0.2c1.8-5.3-8.6-19-18.7-15.2c-0.4,0.1-0.4,0.8,0.1,0.8
		c4.8-0.4,8.6,1.2,12,4.4C601.9,114,602.3,118.5,603.6,120.3z"/>
	<path class="st0" d="M592.2,111.1c-0.3-0.1-0.5,0.4-0.1,0.5c6.7,2.7,6.5,7.8,9,9.2c0.2,0.1,0.5,0,0.6-0.2c0.3-1.9-1.9-4.2-3-5.5
		C596.9,113.2,594.7,111.8,592.2,111.1z"/>
	<path class="st0" d="M599.1,122.1c0.2-2.8-3.6-4.5-5.4-6.1c-0.3-0.3-0.8,0.2-0.5,0.5c0.9,0.9,1.9,1.8,2.8,2.7
		C597.6,120.6,599.1,123.4,599.1,122.1z"/>
	<path class="st0" d="M608.6,201.1c-5.2-1.6-10.2,1.3-19-4.6c-0.2-0.1-0.3,0.1-0.2,0.3C596.6,205.3,611.8,202.1,608.6,201.1z"/>
	<path class="st0" d="M590.7,193.9c3.6,2.5,10.4,5.2,13.6,3.7c0.3-0.2,0.2-0.6-0.1-0.7c-2.9-1.1-6.8-0.1-13.4-3.3
		C590.7,193.6,590.6,193.8,590.7,193.9z"/>
	<path class="st0" d="M601.6,193.7c-0.6-0.7-1.6-0.6-2.5-0.7c-1.2-0.2-2.4-0.3-3.6-0.8c-0.3-0.1-0.6,0.2-0.3,0.4
		C598.6,195.5,602.6,194.9,601.6,193.7z"/>
</g>
</svg>
