<?xml version="1.0" encoding="utf-8"?>
<!-- Generator: Adobe Illustrator 21.1.0, SVG Export Plug-In . SVG Version: 6.00 Build 0)  -->
<svg version="1.1" id="Objects" xmlns="http://www.w3.org/2000/svg" xmlns:xlink="http://www.w3.org/1999/xlink" x="0px" y="0px"
	 viewBox="0 0 800 800" style="enable-background:new 0 0 800 800;" xml:space="preserve">
<style type="text/css">
	.st0{fill:#F2F2F2;}
</style>
<g>
	<path class="st0" d="M775.7,443.2c-35.3,0-65.6,24-73.5,57.5c-10.5-6.7-22.5-10.2-35.1-10.2c-34.3,0-62.7,26.8-64.5,60.3
		c-1.2-0.2-2.4-0.3-3.6-0.4c0,0-9.4-0.9-19.4,2.8c-9.9,3.6-23.3,11.6-28.8,20.9l0,0V342.8c8-6.6,8.7-16.7,8.6-20.9
		c3.5-1.6,7-2.4,10.4-2.4c14.5,0,22.7,15.6,22.8,15.8l3.4,6.6l1.3-7.3c12.6-70.2-12-76.8-13.1-77l-2.4-0.5l-0.6,2.3
		c-6.5,24.7-14.5,27.3-17.6,27.3c-0.2,0-0.5,0-0.7,0c11.6-137.6-26.4-155.8-28-156.5l-1-0.4l-1,0.4c-1.6,0.7-39.6,18.9-28,156.5
		c-0.2,0-0.4,0-0.7,0c-3.1,0-11.1-2.7-17.6-27.3l-0.6-2.3l-2.4,0.5c-1.1,0.2-25.7,6.7-13.1,77l1.3,7.2l3.4-6.5
		c0.1-0.2,8.3-15.8,22.8-15.8c3.3,0,6.8,0.8,10.4,2.4c-0.1,4.1,0.6,14.2,8.6,20.9v213.3c-3-0.4-8.4-0.8-11.1-0.8
		c-5.3,0-9.3,0.5-15.6,2.2c-6.3,1.8-17.5,8.7-19.4,10.2c-1.8,1.6-4.1,3.6-5.9,5.6c0.1-1.7,0.2-3.3,0.2-5c0-42.4-34.5-77-77.2-77.9
		c0.8-7.7,1.3-14.2,1.3-19.1c0-46.3-38.1-83.9-85-83.9c-21.4,0-41.8,7.8-57.5,22.1c-14.6,13.2-24,30.9-26.7,50.1
		c-8.1-4.8-17.2-7.3-26.7-7.3c-9.9,0-19.4,2.7-27.7,7.9c-21.2-23.4-51.3-36.8-83.2-36.8c-31.5,0-61.1,13-82.2,35.8v7.6
		c20.3-24.4,50.2-38.4,82.2-38.4c31.1,0,60.6,13.4,80.8,36.7c0.8,1,2.3,1.2,3.3,0.4c7.9-5.4,17.1-8.2,26.7-8.2
		c9.8,0,19.3,3,27.3,8.6c0.7,0.5,1.7,0.6,2.5,0.2c0.8-0.4,1.4-1.2,1.4-2c3.8-40.9,38-71.7,79.7-71.7c44.1,0,80,35.4,80,78.9
		c0,5.3-0.5,12.6-1.5,21.3c-0.1,0.7,0.1,1.4,0.6,2c0.5,0.5,1.2,0.8,1.9,0.8c0.2,0,0.3,0,0.5,0c0.2,0,0.3,0,0.5,0
		c40.8,0,73.9,32.7,73.9,72.9c0,4.5-0.4,9-1.3,13.5c-0.2,1.2,0.4,2.4,1.6,2.8c0.3,0.1,0.6,0.2,0.9,0.2c0.8,0,1.7-0.4,2.1-1.2
		c3.1-4.9,6.6-8.9,11.5-12.7c4.9-3.8,13.4-7.5,13.7-7.6c5.5-2,11.3-3,17.3-3c3.5,0,12.2,1.3,15.8,2l0.2,0.2V340.3l-1-0.7
		c-8.7-6.4-7.5-18.7-7.5-18.9l0.2-1.7l-1.5-0.8c-4.8-2.4-9.5-3.7-14.1-3.7c-11.4,0-19.4,7.5-23.6,13c-7.3-46.8,3.4-60.2,8.2-63.8
		c6.7,23.1,15.4,28,21.6,28c2.6,0,4.3-0.9,4.6-1.1l1.4-0.8l-0.1-1.6c-6.1-70.6,1-108.6,8.1-128.1c6.1-16.9,13.2-23,15.8-24.8
		c5.8,4,34.5,30,23.8,152.9l-0.1,1.6l1.4,0.8c0.3,0.2,2,1.1,4.6,1.1c6.2,0,14.9-5,21.6-28c4.8,3.6,15.5,17.1,8.2,63.8
		c-4.3-5.4-12.2-13-23.6-13c-4.6,0-9.3,1.2-14.1,3.7l-1.5,0.8l0.2,1.7c0,0.1,1.3,12.4-7.5,18.9l-1,0.7v247.3
		c0,1.3,14.7-25.2,37.1-30.3c9.7-2.6,13.5-2,13.5-2c2.7,0,5.4,0.3,8,0.8c0.7,0.2,1.5,0,2.1-0.5c0.6-0.5,0.9-1.2,0.9-1.9
		c0.3-32.1,27-58.3,59.6-58.3c12.8,0,25,4,35.3,11.4c0.7,0.5,1.6,0.6,2.4,0.3c0.8-0.3,1.4-1,1.5-1.9c6-33.1,35.2-57.2,69.4-57.2
		c8.3,0,16.3,1.4,24.1,4.2v-5.3C792,444.5,783.9,443.2,775.7,443.2z"/>
	<g>
		<path class="st0" d="M534.2,209.2c6.6,0,12,5.4,12,12c0,6.6-5.4,12-12,12s-12-5.4-12-12C522.2,214.6,527.6,209.2,534.2,209.2
			 M534.2,205.2c-8.8,0-16,7.2-16,16c0,8.8,7.2,16,16,16s16-7.2,16-16C550.2,212.4,543,205.2,534.2,205.2L534.2,205.2z"/>
	</g>
</g>
</svg>
